<svg width="24" height="24" viewBox="0 0 24 24" fill="none" xmlns="http://www.w3.org/2000/svg">
<path d="M20 12.499C20 19.2998 14.3112 21 11.4666 21C8.97778 21 4 19.2998 4 12.499C4 9.83876 5.3755 8.05215 6.69173 7.03187C7.42439 6.46393 8.35802 7.02941 8.45192 7.96092L8.53271 8.7622C8.63108 9.73796 9.50524 10.538 10.3147 10.0034C11.9 8.95656 12.4706 6.43955 12.4706 5.06061V4.7511C12.4706 3.38378 13.8295 2.50378 14.9198 3.30504C17.332 5.07776 20 8.16968 20 12.499Z" fill="#C62828"/>
<path d="M20 12.499C20 19.2998 14.3112 21 11.4666 21C8.97778 21 4 19.2998 4 12.499C4 9.83876 5.3755 8.05215 6.69173 7.03187C7.42439 6.46393 8.35802 7.02941 8.45192 7.96092L8.53271 8.7622C8.63108 9.73796 9.50524 10.538 10.3147 10.0034C11.9 8.95656 12.4706 6.43955 12.4706 5.06061V4.7511C12.4706 3.38378 13.8295 2.50378 14.9198 3.30504C17.332 5.07776 20 8.16968 20 12.499Z" fill="#C62828"/>
<path d="M12.2196 20.25C11.0484 20.25 8.70587 19.5699 8.70587 16.8496C8.70587 15.1636 9.74727 13.9467 10.719 13.2292C11.2037 12.8714 11.8062 13.2655 11.8062 13.8743C11.8062 14.3164 11.8062 15.051 12.0888 15.5408C12.3979 16.0764 13.0047 15.7012 13.1726 15.1044C13.3014 14.6465 13.8281 14.3894 14.2027 14.6756C14.7395 15.0858 15.2941 15.7967 15.2941 16.8496C15.2941 19.5699 13.2444 20.25 12.2196 20.25Z" fill="#F9A825"/>
</svg>
